<svg width="66" height="61" viewBox="0 0 66 61" fill="none" xmlns="http://www.w3.org/2000/svg">
<path d="M37.5816 8.86111C38.5303 8.36033 39.7052 8.69721 40.2443 9.62463L48.2205 23.3446L57.6837 35.5968C58.5086 36.6647 58.0608 38.2263 56.7954 38.6949L42.2775 44.0705L28.2428 51.479C27.2941 51.9798 26.1192 51.6429 25.5801 50.7155L17.6039 36.9955L8.14067 24.7433C7.31581 23.6754 7.76359 22.1138 9.02903 21.6452L23.5469 16.2696L37.5816 8.86111Z" fill="url(#paint0_linear_11_878)"/>
<path d="M24.7866 37.3128C24.7732 37.2886 24.7411 37.2591 24.6902 37.2242C24.6393 37.1893 24.5697 37.1491 24.4813 37.1034L23.9748 36.9582C23.932 36.9662 23.8542 36.9541 23.7417 36.9218C23.7283 36.8977 23.6962 36.8682 23.6453 36.8333C23.6132 36.8038 23.5717 36.7716 23.5208 36.7367L23.2314 36.6841C23.1322 36.676 23.0572 36.6545 23.0063 36.6196C22.9688 36.6088 22.9406 36.6008 22.9219 36.5954C22.8093 36.5631 22.7263 36.4987 22.6728 36.4022L22.7212 36.2334C22.7187 36.0297 22.7631 35.9104 22.8542 35.8757C22.8408 35.8515 22.806 35.8314 22.7497 35.8153C22.7417 35.7724 22.7498 35.7443 22.7739 35.7309C22.8035 35.6987 22.8209 35.6733 22.8263 35.6545L22.8786 35.5782C22.8948 35.5219 22.8573 35.4402 22.7663 35.3329C22.7878 35.2578 22.875 35.2016 23.0278 35.1643L23.0358 35.1361C22.9716 35.0771 22.9287 35.0141 22.9074 34.947C22.8994 34.9042 22.9075 34.805 22.9318 34.6496C22.956 34.4941 22.9938 34.2918 23.0449 34.0426C22.9459 33.8924 22.9233 33.7235 22.9771 33.536C22.9932 33.4797 23.0965 33.2962 23.2871 32.9855C23.247 32.9131 23.164 32.8487 23.0381 32.7923C23.0113 32.744 23.0127 32.7038 23.0422 32.6717L23.2515 32.3663C23.2328 32.361 23.2181 32.306 23.2075 32.2015C23.1995 32.1586 23.1942 32.1063 23.1915 32.0446C23.1889 31.983 23.1823 31.8999 23.1717 31.7954C23.2066 31.7445 23.2509 31.6253 23.3047 31.4377C23.3047 31.4377 23.2913 31.4136 23.2646 31.3653C23.2753 31.3278 23.2808 31.238 23.2809 31.0959C23.3052 30.9405 23.3281 30.7543 23.3498 30.5372C23.3714 30.3201 23.385 30.1312 23.3905 29.9704C23.4148 29.8149 23.4404 29.6903 23.4673 29.5965C23.5049 29.4652 23.5599 29.3795 23.6323 29.3394C23.6243 29.2965 23.5507 29.2348 23.4114 29.1543C23.1863 29.0897 22.9491 29.1029 22.6998 29.1938L22.3171 29.9975C22.2929 30.0109 22.2594 30.0215 22.2165 30.0295C22.1924 30.0429 22.1562 30.063 22.1079 30.0897L22.0918 30.146C22.0864 30.1648 22.0757 30.2023 22.0595 30.2586C22.0675 30.3014 22.0728 30.3537 22.0755 30.4154C22.1505 30.4369 22.2241 30.4986 22.2964 30.6005L22.1433 30.922C22.0682 31.0425 22.048 31.1484 22.0827 31.2395L21.8657 31.1469L21.7772 31.2433L21.8293 31.38C21.8641 31.4712 21.8761 31.5355 21.8653 31.573L21.4344 32.3324L21.422 32.6943C21.4059 32.7505 21.383 32.7947 21.3535 32.8269L21.2569 32.9514C21.2488 33.0506 21.2353 33.1685 21.2164 33.3051C21.2029 33.4231 21.1867 33.5504 21.1678 33.687C21.157 33.7245 21.0672 33.7901 20.8982 33.8838C20.6944 34.0283 20.5925 34.1006 20.5925 34.1006C20.571 34.1756 20.6205 34.2507 20.741 34.3258C20.8669 34.3823 20.9299 34.4105 20.9299 34.4105L20.4663 35.7086L20.3778 35.805C20.351 35.7567 20.2921 35.6789 20.2011 35.5716L20.0242 35.5514C19.9626 35.554 19.913 35.5499 19.8755 35.5392L19.4938 35.2775C19.4938 35.2775 19.4509 35.2855 19.3651 35.3015C19.2793 35.3175 19.2271 35.3228 19.2083 35.3174C18.9591 35.2662 18.7903 35.2178 18.7019 35.1722C18.6698 35.1427 18.6216 35.0984 18.5573 35.0394C18.493 34.9804 18.4221 34.9093 18.3444 34.8261L18.26 34.8019C18.1473 34.9117 18.0535 34.9558 17.9785 34.9343L17.6651 34.7531C17.6409 34.7665 17.6101 34.7678 17.5726 34.757C17.5351 34.7463 17.4949 34.7449 17.452 34.7529C17.3019 34.7099 17.2457 34.6227 17.2834 34.4914C17.3558 34.4513 17.4483 34.3763 17.561 34.2665C17.553 34.2236 17.5732 34.1178 17.6216 33.949C17.6324 33.9115 17.6431 33.874 17.6539 33.8364C17.6888 33.7856 17.7263 33.7253 17.7666 33.6556L17.8874 33.4467C17.8928 33.4279 17.9036 33.3904 17.9197 33.3342C17.9358 33.2779 17.948 33.2002 17.9561 33.101L17.9966 32.7473C18.2682 31.8711 18.5207 31.2026 18.7544 30.7419L18.9114 30.5129C18.9275 30.4566 18.9343 30.3976 18.9316 30.336L18.9238 30.151C18.9292 30.1323 18.9614 30.0908 19.0204 30.0265C18.999 29.9595 19.0205 29.8844 19.0849 29.8014L19.262 29.6086C19.2674 29.5899 19.2755 29.5617 19.2862 29.5242C19.297 29.4867 19.3037 29.4277 19.3065 29.3473L19.3228 29.078C19.3282 29.0592 19.3913 28.9454 19.5121 28.7364C19.6329 28.5275 19.7054 28.4163 19.7295 28.403C19.6868 28.2689 19.6721 28.1429 19.6856 28.025C19.7339 27.9983 19.7822 27.9715 19.8305 27.9447C19.8787 27.918 19.9297 27.8819 19.9833 27.8363C20.0156 27.7238 19.9943 27.5858 19.9194 27.4222L20.9272 24.5446C20.9755 24.5179 21.0264 24.4817 21.0801 24.4362C21.1525 24.3961 21.2155 24.3532 21.2692 24.3077C21.2558 24.2836 21.221 24.2635 21.1647 24.2473L21.2255 23.7167C21.2739 23.5479 21.3183 23.4287 21.3585 23.359L21.3546 23.2666C21.3787 23.2532 21.4203 23.2144 21.4793 23.1501L21.5358 22.9531C21.5466 22.9156 21.5479 22.8754 21.5399 22.8325C21.5507 22.795 21.5588 22.7669 21.5641 22.7481C21.6365 22.708 21.717 22.6397 21.8056 22.5433L21.7578 22.0729L21.8546 21.7353C21.8895 21.6844 21.9364 21.6268 21.9954 21.5626C22.0545 21.4983 22.1162 21.4246 22.1806 21.3416C22.186 21.3229 22.1793 21.3108 22.1605 21.3054C22.1659 21.2867 22.1713 21.2679 22.1767 21.2491C22.1928 21.1929 22.2183 21.1393 22.2532 21.0884C22.3068 21.0429 22.3538 20.9853 22.3941 20.9157C22.3539 20.8433 22.3219 20.7427 22.2979 20.6141L22.4309 20.2564C22.4524 20.1813 22.5838 20.0769 22.8252 19.9432C23.0424 19.8228 23.1577 19.7036 23.1713 19.5857L22.645 19.1912C22.7094 19.1082 22.7818 19.068 22.8622 19.0708L23.0237 18.295C22.9944 18.1851 22.985 18.1114 22.9958 18.0739C23.2049 18.0526 23.3349 18.0595 23.3858 18.0944C23.4233 18.1051 23.4782 18.1614 23.5504 18.2634C23.6039 18.3599 23.6682 18.4189 23.7432 18.4404C23.7915 18.4137 23.8492 18.3896 23.9162 18.3682C24.002 18.3522 24.0851 18.3456 24.1655 18.3484C24.1922 18.3966 24.235 18.4597 24.2939 18.5375C24.3769 18.6019 24.4573 18.6756 24.5349 18.7588L24.5953 18.6543L24.8084 18.6545C24.9183 18.6252 24.98 18.6225 24.9934 18.6467C25.0309 18.6574 25.0991 18.7379 25.1982 18.8881C25.2918 19.057 25.3574 19.1469 25.3949 19.1576C25.4324 19.1684 25.5303 19.1457 25.6884 19.0896C25.793 19.0789 25.8761 19.0723 25.9377 19.0697C26.0181 19.0725 26.0744 19.0886 26.1065 19.1181L26.211 19.1785C26.211 19.1785 26.2539 19.1705 26.3397 19.1545C26.3879 19.1278 26.4308 19.1198 26.4683 19.1305C26.5434 19.152 26.6196 19.2754 26.6972 19.5006C26.7347 19.5114 26.7923 19.4873 26.8701 19.4284C26.9425 19.3883 26.9854 19.3803 26.9988 19.4044L27.3924 19.7304C27.43 19.7412 27.4675 19.7519 27.505 19.7627C27.5479 19.7547 27.5908 19.7467 27.6337 19.7387L27.7259 19.9478L28.2925 20.2017C28.3059 20.2258 28.3193 20.2499 28.3327 20.2741C28.3461 20.2982 28.3688 20.325 28.401 20.3545C28.6769 20.454 28.9033 20.5493 29.0801 20.6406L29.4897 21.1234C29.4897 21.1234 29.4977 21.1663 29.5137 21.2521L29.5057 21.2803C29.468 21.4115 29.5268 21.5604 29.6821 21.7267L30.0597 22.109L29.9871 22.3622L30.039 22.712C29.988 22.8192 29.9249 22.933 29.8497 23.0535C29.7799 23.1553 29.7075 23.2665 29.6323 23.387C29.6269 23.4058 29.6336 23.4178 29.6524 23.4232L29.8334 23.3229C29.9299 23.2694 30.0063 23.2507 30.0626 23.2668L30.1108 23.3111C30.1242 23.3352 30.1268 23.3969 30.1187 23.496C30.1105 23.5952 30.101 23.7345 30.0901 23.9141L30.1342 24.079L30.0535 24.3603L29.9449 24.4205C29.934 24.6001 29.9165 24.6966 29.8924 24.7099C29.8307 24.7126 29.7583 24.7527 29.6751 24.8303C29.6751 24.8303 29.6885 24.8545 29.7153 24.9028C29.7287 24.9269 29.7916 24.9551 29.9042 24.9874L29.888 25.0436C29.8773 25.0811 29.8316 25.1695 29.7511 25.3088L29.7229 25.3008C29.7042 25.2954 29.6572 25.353 29.5821 25.4735C29.5069 25.594 29.4881 25.6597 29.5256 25.6705C29.5819 25.6866 29.6341 25.6813 29.6824 25.6545C29.7119 25.6224 29.7347 25.5782 29.7509 25.5219C29.767 25.4656 29.7697 25.4563 29.7589 25.4938L29.6098 25.9077C29.5857 25.9211 29.5441 25.9599 29.4851 26.0242C29.4635 26.0992 29.4246 26.1997 29.3682 26.3256C29.3305 26.4569 29.2781 26.6043 29.211 26.7677L28.9977 26.9806C28.9225 27.1011 28.8514 27.2431 28.7842 27.4065L28.7559 27.6115C28.7317 27.6249 28.717 27.641 28.7116 27.6597C28.7062 27.6785 28.6888 27.7039 28.6593 27.7361C28.5706 27.9745 28.4351 28.1285 28.2528 28.198L28.2205 28.3106C28.2097 28.3481 28.1869 28.3923 28.152 28.4432C28.1413 28.4807 28.1184 28.5249 28.0836 28.5758C27.9924 28.6105 27.6786 28.8555 27.1421 29.3106L26.8566 29.3505C26.7279 29.3745 26.6287 29.4374 26.5589 29.5392C26.5883 29.6491 26.6002 29.7845 26.5947 29.9453C26.5571 30.0766 26.4914 30.1288 26.3976 30.1019C26.285 30.0696 26.2261 30.0628 26.2207 30.0816C26.2046 30.1379 26.2622 30.1848 26.3935 30.2225C26.4872 30.2494 26.518 30.3191 26.4857 30.4316L26.3608 30.7612C26.007 30.7206 25.8221 30.7285 25.806 30.7848C25.7952 30.8223 25.9814 30.9163 26.3645 31.0667C26.3404 31.0801 26.288 31.1564 26.2075 31.2957L26.324 31.4205L26.2911 32.1722L26.3472 32.4014C26.189 32.4576 26.0388 32.5566 25.8966 32.6985L25.9206 32.8272C25.9982 32.9103 26.0558 33.0283 26.0931 33.1811C26.1145 33.2482 26.1158 33.35 26.0969 33.4867L26.2535 33.6838C26.2427 33.7213 26.2293 33.7682 26.2131 33.8245C26.197 33.8808 26.1902 33.9397 26.1929 34.0014C26.1633 34.0335 26.1271 34.1246 26.084 34.2747C26.1242 34.3471 26.1308 34.4302 26.1039 34.5239L25.9827 35.159C25.9961 35.1832 26.0041 35.2261 26.0067 35.2877C26.0093 35.3493 26.0066 35.4298 25.9984 35.5289C25.8778 35.5958 25.8067 35.6668 25.7851 35.7418C25.7341 35.8489 25.7555 35.916 25.8493 35.9429C25.868 35.9482 25.9203 35.9429 26.0061 35.9269L25.8971 36.4133C25.8971 36.4133 25.929 36.6559 25.9929 37.1411C26.0062 37.1652 25.9995 37.2241 25.9726 37.3179C25.9134 37.5242 25.8088 37.6059 25.6588 37.5629C25.49 37.5145 25.3855 37.4541 25.3454 37.3817C25.3106 37.2905 25.2839 37.2422 25.2651 37.2368C25.1498 37.285 24.9903 37.3103 24.7866 37.3128ZM26.6159 20.4212C26.6454 20.389 26.6468 20.3488 26.62 20.3006C26.5932 20.2523 26.5557 20.2415 26.5075 20.2683C26.4967 20.3058 26.5328 20.3568 26.6159 20.4212ZM23.0333 20.9163L23.17 20.8641C23.1754 20.8454 23.1379 20.8346 23.0575 20.8319C23.0387 20.8265 23.0307 20.8546 23.0333 20.9163ZM23.3064 21.2382C23.3573 21.2731 23.4216 21.2611 23.4994 21.2022C23.4726 21.1539 23.4499 21.1271 23.4311 21.1217C23.3748 21.1056 23.3333 21.1444 23.3064 21.2382ZM28.4467 22.9557C28.4976 22.9906 28.5619 22.9786 28.6397 22.9197C28.6263 22.8956 28.6009 22.8781 28.5634 22.8674C28.5071 22.8512 28.4682 22.8807 28.4467 22.9557ZM24.6197 26.8518L24.9575 26.7355L25.3394 26.7841L25.3998 26.6796L25.4 26.4666C25.4241 26.4532 25.4603 26.4331 25.5086 26.4064C25.5756 26.385 25.6547 26.3569 25.7459 26.3222C25.7861 26.2525 25.8612 26.203 25.9712 26.1736C26.0249 25.9861 26.1311 25.7222 26.2895 25.3819C26.311 25.3069 26.3379 25.2131 26.3702 25.1006C26.4212 24.9934 26.4749 24.8769 26.5313 24.751C26.5608 24.7188 26.5904 24.6867 26.6199 24.6546C26.6548 24.6037 26.6923 24.5434 26.7326 24.4738L26.7086 24.3451C26.6926 24.2593 26.6846 24.2164 26.6846 24.2164C26.682 24.1548 26.6941 24.077 26.721 23.9833C26.7372 23.927 26.756 23.8614 26.7775 23.7863C26.8178 23.7167 26.8607 23.6377 26.9064 23.5493L27.0394 23.1916L27.0555 23.1353C27.1093 22.9477 26.9661 22.7747 26.6258 22.6163L26.2762 22.4551L25.9829 22.3101C25.9079 22.2886 25.8208 22.2738 25.7216 22.2656C25.6466 22.2441 25.5595 22.2293 25.4603 22.2212C25.337 22.2264 25.2097 22.2812 25.0782 22.3856L25.0259 22.462C24.9052 22.5289 24.8127 22.6038 24.7483 22.6868C24.7429 22.7056 24.7415 22.7458 24.7442 22.8075C24.7709 22.8557 24.7802 22.9294 24.7721 23.0286L24.7959 23.3703C24.7476 23.3971 24.6698 23.456 24.5625 23.547C24.5223 23.6167 24.4726 23.6836 24.4136 23.7479C24.3733 23.8175 24.321 23.8939 24.2566 23.9769C24.2566 23.9769 24.2846 24.056 24.3408 24.2142C24.3915 24.3911 24.4169 24.4796 24.4169 24.4796C24.3766 24.5492 24.327 24.6162 24.268 24.6805C24.2331 24.7314 24.1928 24.801 24.1472 24.8894L24.0342 25.2833L23.8689 25.7535L23.8447 25.8379C23.7963 26.0067 23.8056 26.1515 23.8725 26.2721C23.8938 26.3392 23.934 26.4116 23.9929 26.4893C24.0116 26.4947 24.0666 26.48 24.1577 26.4453C24.2301 26.4051 24.2757 26.3878 24.2945 26.3931C24.3507 26.4093 24.4404 26.5568 24.5634 26.8356L24.6197 26.8518ZM27.468 24.776C27.5806 24.8083 27.771 24.7106 28.0392 24.483C27.9991 24.4106 27.9777 24.3436 27.9751 24.282L27.7461 24.125C27.671 24.1034 27.5611 24.1328 27.4163 24.2131C27.3733 24.3631 27.3905 24.5508 27.468 24.776ZM22.2224 23.8503C22.2733 23.8852 22.3376 23.8732 22.4154 23.8143C22.3887 23.7661 22.3659 23.7392 22.3472 23.7339C22.2909 23.7177 22.2493 23.7565 22.2224 23.8503ZM22.1714 26.7891C22.1955 26.7758 22.213 26.7503 22.2237 26.7128C22.2398 26.6565 22.2104 26.6176 22.1354 26.5961C22.1005 26.647 22.1125 26.7113 22.1714 26.7891ZM24.2413 27.3218C24.2735 27.3513 24.3378 27.3393 24.4343 27.2858C24.421 27.2616 24.3861 27.2415 24.3299 27.2254C24.2736 27.2092 24.2441 27.2414 24.2413 27.3218ZM26.0933 28.8271L26.1938 28.7951C26.2046 28.7576 26.2032 28.7267 26.1899 28.7026L26.0933 28.8271ZM22.6201 28.4097C22.6496 28.3776 22.651 28.3374 22.6242 28.2891C22.6162 28.2462 22.576 28.2449 22.5036 28.285C22.4875 28.3413 22.5263 28.3829 22.6201 28.4097ZM24.6977 29.3404C24.7486 29.3753 24.7982 29.3794 24.8465 29.3526C24.8706 29.3392 24.8747 29.2897 24.8587 29.2039C24.8212 29.1931 24.7675 29.2386 24.6977 29.3404ZM25.4756 31.5121C25.5051 31.48 25.5065 31.4398 25.4797 31.3915C25.4663 31.3674 25.4168 31.3633 25.331 31.3793C25.3149 31.4356 25.3631 31.4799 25.4756 31.5121ZM23.946 33.4485C23.9835 33.4592 24.0479 33.4472 24.139 33.4125C24.2248 33.3965 24.2771 33.3911 24.2958 33.3965L24.324 33.4046L24.4208 33.067L24.1074 32.8858C24.0805 32.9795 24.0737 33.0385 24.0871 33.0626C24.0871 33.0626 24.0589 33.1256 24.0025 33.2515C23.973 33.2836 23.9475 33.3372 23.926 33.4123C23.9206 33.431 23.9273 33.4431 23.946 33.4485ZM19.1708 32.475C19.2995 32.451 19.3719 32.4109 19.388 32.3546C19.4096 32.2796 19.3627 32.1951 19.2476 32.1012L19.0548 31.9241L18.9824 31.9643C18.9984 32.05 19.0237 32.1385 19.0585 32.2297C19.0986 32.3021 19.1361 32.3838 19.1708 32.475ZM18.5703 34.0383C18.5998 34.0062 18.6012 33.966 18.5744 33.9177C18.5664 33.8748 18.5262 33.8735 18.4538 33.9136C18.4377 33.9699 18.4765 34.0114 18.5703 34.0383ZM19.3059 34.1275L19.2215 34.1033C19.2349 34.1274 19.2496 34.1824 19.2656 34.2682L19.3059 34.1275ZM34.2851 40.0364L34.0842 39.8875C33.8511 39.78 33.6341 39.6874 33.4332 39.6095C33.2456 39.5557 33.0795 39.4979 32.9348 39.4361L32.6936 39.4278L32.0668 39.0654L31.7894 39.0772L31.0339 38.7388L30.6038 38.6459C30.5663 38.6351 30.5261 38.6338 30.4832 38.6418L30.3626 38.6376L29.2293 38.13L29.0163 38.1298C28.9841 38.1003 28.9332 38.0654 28.8636 38.0251C28.8127 37.9902 28.7524 37.9526 28.6828 37.9124L28.5823 37.9444C28.5501 37.9149 28.459 37.8787 28.309 37.8356L28.2446 37.8476L27.7382 37.7024C27.4569 37.6217 27.39 37.43 27.5377 37.1273L27.6989 36.7777C27.7553 36.6518 27.7943 36.5513 27.8158 36.4763C27.8427 36.3825 27.8642 36.3075 27.8803 36.2512C27.9098 36.2191 27.9608 36.183 28.0332 36.1428C28.111 36.0839 28.229 36.0264 28.3871 35.9703L28.4033 35.914L28.1381 35.7771L28.1422 35.6565C28.1798 35.5252 28.2469 35.4328 28.3435 35.3793C28.499 35.2615 28.6023 35.149 28.6534 35.0418C28.565 34.9962 28.5208 34.9023 28.521 34.7603L28.5253 34.4266C28.5253 34.4266 28.6167 34.1788 28.7994 33.6831L28.9721 33.824C28.9963 33.8106 29.0218 33.757 29.0487 33.6633L29.0971 33.4944C29.0569 33.422 29.0262 33.3523 29.0048 33.2853L28.9928 33.221C29.0036 33.1835 29.0438 33.1138 29.1136 33.012C29.1834 32.9102 29.2183 32.8594 29.2183 32.8594C29.2398 32.7843 29.2211 32.7079 29.1622 32.6301C29.1837 32.5551 29.2294 32.4667 29.2992 32.3649C29.2992 32.3649 29.2885 32.3314 29.2671 32.2644C29.2832 32.2081 29.3007 32.1827 29.3194 32.1881C29.3276 32.0889 29.3665 31.9884 29.4363 31.8866C29.5195 31.809 29.561 31.7702 29.561 31.7702L29.5855 31.4727C29.5936 31.3735 29.5937 31.3025 29.5857 31.2596C29.583 31.198 29.5844 31.1578 29.5898 31.139C29.6005 31.1015 29.6542 31.056 29.7507 31.0025C29.8473 30.949 29.9009 30.9035 29.9117 30.8659C29.9117 30.8659 29.9091 30.8043 29.9038 30.681C29.8637 30.6086 29.8463 30.563 29.8517 30.5443L30.1295 30.1063C30.0465 30.0419 30.06 29.924 30.17 29.7526L30.3513 29.4391C30.3594 29.34 30.3621 29.2596 30.3595 29.1979C30.3757 29.1417 30.3891 29.0948 30.3999 29.0573L30.5691 28.6795L30.7662 28.5229C30.7582 28.48 30.7516 28.3969 30.7464 28.2736L30.9036 27.8316C30.8796 27.7029 30.8703 27.6292 30.8756 27.6104L31.2379 27.1967C31.2379 27.1967 31.2312 27.1846 31.2178 27.1605C31.2232 27.1417 31.2219 27.1109 31.2139 27.068C31.23 27.0117 31.2488 26.9461 31.2703 26.871C31.316 26.7826 31.367 26.6755 31.4234 26.5496L31.4639 26.1958C31.4773 26.22 31.5364 26.0847 31.6412 25.7899L31.6334 25.605C31.6254 25.5621 31.6147 25.5286 31.6013 25.5045C31.6067 25.4857 31.6121 25.4669 31.6174 25.4482C31.6469 25.4161 31.6765 25.3839 31.706 25.3518C31.7355 25.3196 31.7583 25.2754 31.7744 25.2192L32.0808 24.3631L32.7703 22.2773C32.9286 22.0791 33.0212 21.9331 33.0481 21.8393L33.0603 21.6906C33.071 21.6531 33.0697 21.6222 33.0564 21.5981C33.043 21.574 33.039 21.5525 33.0444 21.5338L33.113 21.1881C33.1238 21.1506 33.1909 21.0582 33.3143 20.9109C33.384 20.9511 33.463 20.9941 33.5514 21.0397C33.6452 21.0666 33.7336 21.1123 33.8166 21.1767C33.8567 21.2491 33.925 21.3296 34.0214 21.4181C34.0402 21.4235 34.0884 21.3967 34.1662 21.3378C34.2386 21.2977 34.2936 21.283 34.3311 21.2938L34.4676 21.4547C34.5586 21.562 34.7113 21.6667 34.9256 21.7687C34.9847 21.7045 35.0383 21.659 35.0866 21.6322L35.3197 21.6686C35.4001 21.6714 35.4685 21.6808 35.5247 21.6969L35.6131 21.8136C35.6398 21.8619 35.6934 21.8874 35.7738 21.8902L36.0713 21.9146C36.1517 21.9173 36.2106 21.9241 36.2482 21.9348C36.2857 21.9456 36.3138 21.9537 36.3326 21.959L36.7986 22.2449C36.8415 22.2369 36.8817 22.2383 36.9193 22.2491C36.9809 22.2464 37.0519 22.2465 37.1323 22.2493L37.3694 22.3781C37.3666 22.4585 37.4122 22.5122 37.5059 22.5391C37.5247 22.5445 37.5797 22.5298 37.6708 22.495C37.7674 22.4415 37.8196 22.4362 37.8276 22.4791C37.8276 22.4791 37.8785 22.514 37.9803 22.5837C38.0286 22.557 38.0835 22.5423 38.1452 22.5397L38.326 22.6524C38.3581 22.6819 38.3809 22.7088 38.3942 22.7329C38.4264 22.7624 38.4518 22.7799 38.4706 22.7852L38.6193 22.7974C38.6086 22.8349 38.6219 22.9301 38.6593 23.0829C38.7129 23.0374 38.7344 22.9624 38.7238 22.8578L38.9731 22.838C39.0052 22.8675 39.0534 22.9118 39.1177 22.9708C39.1819 23.0298 39.2556 23.0915 39.3386 23.1559C39.3279 23.1934 39.3425 23.2484 39.3827 23.3208L39.4671 23.345L39.6924 23.1965C39.7353 23.1885 39.7848 23.1925 39.8411 23.2087C39.9161 23.2302 39.9938 23.2423 40.0742 23.2451L40.2631 23.3297L39.9003 24.3827C39.785 24.4308 39.7139 24.5017 39.687 24.5955L39.6506 24.8287L39.2071 26.163C39.1695 26.2943 39.0475 26.3304 38.8411 26.2712C38.801 26.1988 38.7555 26.1451 38.7046 26.1103C38.635 26.07 38.5345 26.031 38.4032 25.9934C38.2773 25.937 38.1272 25.8939 37.953 25.8643C37.9155 25.8535 37.8686 25.8401 37.8124 25.824C37.7615 25.7891 37.6918 25.7488 37.6034 25.7032L37.3583 25.6024L36.892 25.5296L36.4218 25.3643C36.3843 25.3536 36.3494 25.3334 36.3173 25.3039L36.2128 25.2435C36.0682 25.1817 35.9489 25.1374 35.8552 25.1105C35.7801 25.089 35.7332 25.0755 35.7145 25.0702C35.6556 24.9924 35.5886 24.9427 35.5136 24.9212C35.4761 24.9105 35.3997 24.9292 35.2844 24.9773C35.1691 25.0254 35.0927 25.0441 35.0552 25.0334C35.0391 25.0896 35.0189 25.1244 34.9948 25.1378L34.9826 25.2866C34.9906 25.3295 34.9865 25.379 34.9704 25.4353C34.9596 25.4728 34.9529 25.5318 34.9501 25.6122C34.741 25.6334 34.5599 25.8758 34.4067 26.3393L34.5112 26.3997L34.7081 26.4562C34.7215 26.4803 34.7174 26.5299 34.6959 26.6049C34.6744 26.68 34.6153 26.7442 34.5188 26.7978C34.3981 26.8646 34.3378 26.8981 34.3378 26.8981C34.3644 27.0884 34.3602 27.28 34.3252 27.473C34.3144 27.5105 34.2527 27.5841 34.14 27.6939C34.0274 27.8037 33.9576 27.9055 33.9307 27.9993L33.8986 27.8987L33.7981 27.9308L33.7739 28.0152C33.8006 28.0635 33.8703 28.1037 33.9828 28.136C33.9721 28.1735 33.9586 28.2204 33.9425 28.2767C33.9505 28.3196 33.9558 28.3718 33.9584 28.4335C34.0092 28.6104 34.0721 28.7097 34.1471 28.7312L34.3682 28.7032C34.3816 28.7274 34.4084 28.7756 34.4485 28.848C34.5128 28.9071 34.5543 28.9393 34.573 28.9447C34.5597 28.9205 34.6508 28.8858 34.8465 28.8404C35.01 28.9075 35.1346 28.9331 35.2203 28.9171C35.314 29.0861 35.389 29.1786 35.4452 29.1947L35.5578 29.227L35.7789 29.1991C35.7977 29.2045 35.8285 29.2031 35.8714 29.1951C35.9143 29.1871 35.9572 29.1792 36 29.1712L36.185 29.1633C36.2413 29.1794 36.2961 29.2358 36.3497 29.3323C36.4165 29.453 36.4594 29.516 36.4781 29.5214C36.5452 29.5 36.6376 29.4961 36.7555 29.5096C36.7555 29.5096 36.7502 29.5283 36.7394 29.5658C36.7528 29.59 36.7514 29.6302 36.7353 29.6865C36.7138 29.7615 36.6721 29.8713 36.6103 30.016C36.5727 30.1473 36.5149 30.3134 36.437 30.5144L36.3484 30.6108C36.3511 30.6724 36.3228 30.8064 36.2636 31.0127C36.2341 31.0448 36.1965 31.1051 36.1509 31.1935C36.1052 31.2819 36.077 31.3449 36.0663 31.3824L36.0501 31.4387C36.0394 31.4762 36.0313 31.5753 36.0257 31.7361L35.9935 31.8487C35.9558 31.98 35.886 32.0817 35.7841 32.154C35.5428 32.2878 35.4033 32.3493 35.3658 32.3386L35.1368 32.1815C35.0993 32.1708 35.0497 32.1667 34.9881 32.1693L34.8112 32.1491C34.7845 32.1008 34.7456 32.0592 34.6947 32.0243C34.668 31.9761 34.6198 31.9318 34.5501 31.8915C34.5072 31.8995 34.455 31.9048 34.3933 31.9075C34.3558 31.8967 34.2969 31.8899 34.2165 31.8872L33.9312 31.714C33.7598 31.604 33.6459 31.5409 33.5896 31.5248L33.2922 31.5004C33.2546 31.4896 33.2266 31.4105 33.208 31.2631C33.2884 31.2658 33.3487 31.2324 33.389 31.1627L33.4171 31.1708C33.4546 31.1816 33.5109 31.1977 33.5859 31.2192C33.6609 31.2407 33.7333 31.2716 33.8029 31.3119L33.8633 31.2074L33.8795 31.1511C33.8956 31.0949 33.8769 31.0185 33.8234 30.9219C33.8046 30.9166 33.7671 30.9058 33.7108 30.8897C33.6787 30.8601 33.6278 30.8253 33.5582 30.785C33.5099 30.8117 33.4696 30.8814 33.4374 30.9939C33.3865 30.959 33.3168 30.9898 33.2282 31.0862C33.2015 31.0379 33.1278 31.0472 33.0071 31.1141L32.9506 31.3111C32.9023 31.3378 32.846 31.3927 32.7816 31.4757C32.6342 31.4944 32.547 31.5506 32.5201 31.6443C32.5201 31.6443 32.5335 31.6685 32.5603 31.7167C32.5736 31.7409 32.5749 31.7717 32.5642 31.8092L32.5319 31.9218C32.5158 31.978 32.4996 32.0343 32.4835 32.0906C32.4674 32.1468 32.4365 32.2192 32.3908 32.3076L32.443 32.4443C32.3732 32.5461 32.1653 32.7402 31.8193 33.0267L31.8031 33.0829C31.7816 33.158 31.7909 33.2317 31.8311 33.3041C31.9008 33.2023 32.039 33.11 32.2454 33.0271C32.2936 33.1424 32.3042 33.2469 32.2773 33.3407C32.2719 33.3594 32.1271 33.4397 31.8429 33.5815L31.8989 33.8107L32.0195 33.8148C32.0946 33.8363 32.1159 33.9034 32.0837 34.0159C32.0354 34.0427 31.967 34.1042 31.8785 34.2007C31.8194 34.2649 31.7792 34.3346 31.7576 34.4096L31.8178 34.5182C31.8125 34.537 31.7212 34.6427 31.5442 34.8355L31.564 35.0848C31.5371 35.1786 31.4554 35.216 31.3187 35.1972C31.3321 35.2213 31.3763 35.2441 31.4513 35.2656L31.4552 35.3581C31.3828 35.3982 31.3292 35.4437 31.2943 35.4946C31.2995 35.6179 31.3463 35.7024 31.4347 35.748C31.5285 35.7749 31.6009 35.8058 31.6518 35.8407C31.8072 35.865 31.9599 35.8986 32.11 35.9417C32.26 35.9847 32.4195 36.0304 32.5883 36.0788C32.5855 36.1592 32.6216 36.2102 32.6967 36.2317C32.7342 36.2424 32.8428 36.1822 33.0225 36.0511C33.135 36.0834 33.1805 36.208 33.1588 36.4251L33.2432 36.4493C33.2594 36.393 33.2822 36.3488 33.3117 36.3167C33.4591 36.2981 33.6614 36.3358 33.9186 36.4298L34.2159 36.6673C34.2105 36.6861 34.2829 36.717 34.4329 36.76C34.508 36.7815 34.5522 36.8043 34.5655 36.8285L34.9555 36.8489C35.0118 36.8651 35.064 36.8598 35.1123 36.833C35.1364 36.8196 35.2048 36.8291 35.3173 36.8614C35.4566 36.9419 35.4994 37.0759 35.4456 37.2635C35.4241 37.3385 35.3395 37.5274 35.1918 37.8301C35.1918 37.8301 35.1676 37.8435 35.1193 37.8703C35.0898 37.9024 35.0697 37.9372 35.0589 37.9747L34.8573 38.6781C34.8573 38.6781 34.7956 38.6807 34.6723 38.686C34.7283 38.9862 34.7321 39.2207 34.6837 39.3895C34.6568 39.4833 34.5737 39.561 34.4342 39.6225L34.4138 40.0124C34.328 40.0284 34.2851 40.0364 34.2851 40.0364ZM38.9274 24.3777L38.9555 24.3858C39.0681 24.418 39.1807 24.3793 39.2933 24.2695C39.2586 24.1783 39.2224 24.1274 39.1849 24.1166L38.7908 24.2168C38.8256 24.3079 38.8711 24.3616 38.9274 24.3777ZM38.2515 24.8233C38.2569 24.8046 38.2395 24.759 38.1994 24.6866C38.1994 24.6866 38.1753 24.7 38.127 24.7267L38.2515 24.8233ZM33.7778 23.9668L34.0072 23.6976L33.8826 23.601L33.7943 23.4843C33.6602 23.5271 33.5744 23.6141 33.5367 23.7454C33.6278 23.8527 33.7081 23.9265 33.7778 23.9668ZM32.4613 25.9033C32.472 25.8658 32.4734 25.8256 32.4654 25.7827C32.4762 25.7452 32.4775 25.705 32.4695 25.6621L32.2726 25.6056L32.2122 25.7101L32.3005 25.8267L32.4613 25.9033ZM30.8394 27.6305C30.8502 27.593 30.8623 27.5863 30.8756 27.6104L30.8394 27.6305ZM32.1812 28.6851C32.318 28.5619 32.3315 28.444 32.2218 28.3313C32.1976 28.3447 32.1533 28.3929 32.0889 28.4759C32.0728 28.5322 32.1036 28.6019 32.1812 28.6851ZM31.4172 28.8009L31.5664 28.387L31.5062 28.2784L31.3092 28.2219L31.2569 28.2982C31.2569 28.2982 31.2689 28.3626 31.2929 28.4913C31.325 28.5208 31.3089 28.577 31.2445 28.6601C31.3008 28.6762 31.3584 28.7232 31.4172 28.8009ZM31.5732 29.6373C31.584 29.5998 31.5974 29.5529 31.6136 29.4966C31.6297 29.4404 31.6552 29.3868 31.6901 29.3359C31.6714 29.3305 31.6258 29.3479 31.5534 29.388C31.5372 29.4443 31.5439 29.5274 31.5732 29.6373ZM34.9655 30.5491L34.9936 30.5572C35.0312 30.568 35.1303 30.5761 35.2911 30.5816L35.1908 30.4006C35.1694 30.3336 35.0984 30.3335 34.9777 30.4004C34.9562 30.4754 34.9521 30.525 34.9655 30.5491ZM31.4055 32.6644C31.4297 32.6511 31.4217 32.6082 31.3815 32.5358C31.344 32.525 31.3132 32.5263 31.289 32.5397L31.4055 32.6644ZM31.063 33.5405C31.1005 33.5513 31.1809 33.5541 31.3042 33.5488L31.2843 33.2995C31.2039 33.2968 31.1556 33.3235 31.1395 33.3798L31.063 33.5405ZM29.7682 33.8087C29.7789 33.7712 29.7924 33.7243 29.8085 33.668C29.8246 33.6117 29.8475 33.5675 29.877 33.5354C29.8636 33.5113 29.8207 33.5193 29.7483 33.5594L29.7682 33.8087ZM29.6188 34.4357C29.6483 34.4036 29.6497 34.3634 29.6229 34.3151C29.5962 34.2668 29.5493 34.2534 29.4823 34.2748C29.4903 34.3176 29.5358 34.3713 29.6188 34.4357ZM28.8938 35.9024C28.9715 35.8435 29.0024 35.7712 28.9864 35.6854L28.8739 35.6531L28.7692 35.8058C28.796 35.8541 28.8375 35.8863 28.8938 35.9024ZM32.747 38.2861C32.7577 38.2486 32.7497 38.2057 32.723 38.1574C32.7096 38.1333 32.6694 38.1319 32.6024 38.1533C32.5862 38.2096 32.6344 38.2538 32.747 38.2861ZM32.6539 38.9293L33.1845 38.9901L33.1566 38.7689C33.146 38.6644 33.0844 38.596 32.9718 38.5637L32.6944 38.5755C32.6783 38.6318 32.6622 38.6881 32.646 38.7443C32.6486 38.806 32.6513 38.8676 32.6539 38.9293ZM39.571 41.5217L39.3983 41.3808C39.2857 41.3485 39.1946 41.3123 39.125 41.272L38.9001 40.9944C38.7876 40.9621 38.7205 40.9835 38.699 41.0585C38.6641 41.1094 38.6186 41.1268 38.5623 41.1106L38.3695 40.9336C38.3641 40.9523 38.3118 40.9576 38.2127 40.9495C38.1833 40.8396 38.1231 40.731 38.0321 40.6237C38.0321 40.6237 37.9798 40.629 37.8753 40.6396C37.811 40.5806 37.7227 40.4639 37.6103 40.2896L37.4297 39.9638L37.2246 39.9354C37.2166 39.8926 37.202 39.8376 37.1806 39.7706C37.1646 39.6848 37.1486 39.599 37.1326 39.5132C37.1433 39.4757 37.1032 39.4033 37.0122 39.296L37.0045 38.898C37.0099 38.8792 36.9871 38.8524 36.9363 38.8175C36.9121 38.8309 36.8719 38.8295 36.8156 38.8134C36.7781 38.8026 36.7487 38.7637 36.7273 38.6967L36.7561 38.0656C36.7588 37.9851 36.7589 37.9141 36.7563 37.8525C36.7778 37.7775 36.7939 37.7212 36.8047 37.6837L36.7525 37.5469C36.7633 37.5094 36.77 37.4505 36.7728 37.3701C36.7756 37.2897 36.7837 37.1905 36.7972 37.0726L36.8377 36.7188C36.9103 36.5366 36.9546 36.4174 36.9708 36.3611C36.9869 36.3049 36.999 36.2982 37.007 36.3411L37.2643 36.2931C37.2 36.2341 37.1491 36.1992 37.1116 36.1884L37.2043 35.9714L37.104 35.7904C37.1121 35.6912 37.1202 35.5921 37.1284 35.4929C37.1606 35.3804 37.1969 35.2893 37.2372 35.2196L37.2976 35.1152L37.4383 35.1555C37.5214 35.0779 37.5791 34.9828 37.6114 34.8702L37.4467 34.7012C37.4629 34.6449 37.4817 34.5793 37.5032 34.5043C37.5247 34.4292 37.5369 34.3515 37.5396 34.2711C37.6068 34.1077 37.6686 33.963 37.725 33.8371C37.7814 33.7112 37.8297 33.6134 37.87 33.5438C37.8995 33.5116 37.9866 33.4554 38.1314 33.3752C38.0913 33.3028 38.0458 33.2491 37.9949 33.2142L38.0352 33.0735C38.1077 33.0334 38.1613 32.9879 38.1962 32.937C38.2606 32.854 38.3411 32.7147 38.4378 32.5191C38.4619 32.5057 38.5209 32.5125 38.6147 32.5394L38.8036 32.624C38.8036 32.624 38.8277 32.6106 38.876 32.5839L38.8199 32.3547C38.7824 32.3439 38.7516 32.3452 38.7274 32.3586C38.647 32.3558 38.5867 32.3893 38.5464 32.4589C38.4017 32.3971 38.3563 32.2725 38.4101 32.0849L38.7406 31.1445C38.8775 31.0213 38.9727 30.8659 39.0265 30.6784L39.0309 30.3447C39.0604 30.3126 39.0832 30.2684 39.0993 30.2121C39.1209 30.1371 39.1517 30.0647 39.192 29.9951L39.4212 29.939C39.3837 29.9283 39.3489 29.9081 39.3168 29.8786L39.4578 29.4928C39.4766 29.4982 39.5034 29.4754 39.5383 29.4245C39.5437 29.4058 39.5062 29.324 39.426 29.1792L39.8087 28.3755C39.8811 28.3354 39.9347 28.2898 39.9696 28.239C40.0448 28.1184 40.1185 28.0381 40.191 27.9979C40.2875 27.9444 40.3438 27.8895 40.36 27.8333L40.348 27.7689C40.3533 27.7502 40.3668 27.7033 40.3883 27.6283C40.4098 27.5532 40.4488 27.4528 40.5052 27.3269C40.5213 27.2706 40.5281 27.2116 40.5254 27.15C40.547 27.075 40.5685 26.9999 40.59 26.9249C40.6707 26.6436 40.8037 26.2859 40.989 25.8519C41.0078 25.8572 41.0372 25.8961 41.0774 25.9685L41.1336 25.9847C41.1524 25.99 41.1671 25.974 41.1779 25.9365L41.1781 25.7234L41.1864 25.4822C41.2079 25.4072 41.2575 25.3402 41.3353 25.2813C41.4211 25.2653 41.5123 25.2306 41.6088 25.177L41.8423 24.7873C41.9201 24.7284 42.0756 24.6816 42.3088 24.647C42.2766 24.7596 42.3073 24.8293 42.4011 24.8562L42.4574 24.8723C42.5511 24.8992 42.6142 24.8564 42.6464 24.7438L42.6427 24.4383L43.242 24.1534L43.2782 24.1334C43.3157 24.1441 43.4201 24.2755 43.5914 24.5276L43.6276 24.5076C43.6759 24.4808 43.7054 24.4487 43.7162 24.4112C43.7538 24.2799 43.7485 24.2276 43.7002 24.2544L43.7768 24.0936L44.1144 24.1904L44.3355 24.1625C44.4401 24.1519 44.499 24.1586 44.5124 24.1828L44.6369 24.2794C44.6316 24.2981 44.6235 24.3263 44.6127 24.3638C44.602 24.4013 44.5765 24.4549 44.5362 24.5245L44.6125 24.5769C44.6876 24.5984 44.7452 24.5743 44.7855 24.5047L44.8419 24.3077C44.8527 24.2702 44.8541 24.23 44.8461 24.1871C44.8568 24.1496 44.8649 24.1215 44.8703 24.1027C44.9802 24.0733 45.0887 24.0842 45.1959 24.1352L45.453 24.3003L45.7505 24.3247L46.0199 24.341C46.0761 24.3571 46.1592 24.4215 46.2689 24.5342C46.2636 24.553 46.3171 24.5785 46.4297 24.6108L46.7673 24.7076L47.0807 24.8888C47.0941 24.9129 47.1075 24.937 47.1208 24.9612C47.1342 24.9853 47.157 25.0121 47.1891 25.0416L47.3097 25.0458L47.3941 25.07C47.5067 25.1023 47.6445 25.294 47.8077 25.6453L48.0648 25.8104C48.0916 25.8586 48.1156 25.9163 48.137 25.9833C48.2843 26.1067 48.3646 26.2515 48.3778 26.4177C48.3912 26.4419 48.3737 26.5383 48.3253 26.7071C48.3251 26.8492 48.3612 26.9712 48.4335 27.0731C48.4469 27.0972 48.4763 27.1361 48.5218 27.1898C48.5673 27.2434 48.641 27.3051 48.7427 27.3749C48.8069 27.576 48.8188 27.7113 48.7785 27.781C48.7732 27.7997 48.682 27.8345 48.5051 27.8853C48.3281 27.936 48.237 27.9708 48.2316 27.9895C48.2208 28.027 48.2141 28.086 48.2113 28.1664C48.2139 28.228 48.2447 28.2978 48.3036 28.3755L48.4521 28.6008C48.4709 28.6062 48.4776 28.6183 48.4722 28.637C48.4989 28.6853 48.5043 28.7376 48.4881 28.7938L48.5845 28.8824L48.4511 29.6662L47.9633 31.0487C47.9392 31.0621 47.9151 31.0755 47.8909 31.0889C47.8668 31.1022 47.84 31.125 47.8105 31.1571C47.7889 31.2322 47.7554 31.3139 47.7097 31.4023C47.6828 31.4961 47.6412 31.6059 47.5848 31.7318L47.4962 31.8282L47.3074 31.7436C47.2457 31.7462 47.1492 31.7287 47.0179 31.6911C46.9804 31.6803 46.9135 31.6307 46.8171 31.5421C46.7207 31.4536 46.6537 31.4039 46.6162 31.3932C46.4795 31.3743 46.3308 31.3621 46.17 31.3566C46.0145 31.3323 45.8497 31.3054 45.6756 31.2757C45.6354 31.2033 45.5899 31.1497 45.539 31.1148C45.4961 31.1228 45.4184 31.1106 45.3059 31.0784L44.7674 30.8326C44.7005 30.7119 44.6832 30.5953 44.7155 30.4828C44.7316 30.4265 44.8148 30.3489 44.9649 30.2499L44.9771 30.1011C45.0013 30.0877 45.0187 30.0623 45.0295 30.0248C45.0402 29.9873 45.0631 29.9431 45.0979 29.8922C45.1868 29.5117 45.352 29.1125 45.5936 28.6946C45.5481 28.6409 45.4946 28.5444 45.4331 28.405C45.5751 28.4051 45.7467 28.3731 45.9477 28.309L45.98 28.1964L45.9037 28.1441C45.9037 28.1441 45.8125 28.1789 45.6302 28.2484L45.5257 28.188L45.6668 27.8021C45.7526 27.7862 45.8317 27.7581 45.9041 27.7179C45.9364 27.6054 45.9351 27.5036 45.9004 27.4124L45.5102 27.605L45.3054 27.3636C45.2224 27.2992 45.0991 27.2334 44.9357 27.1662C44.9116 27.1796 44.8714 27.1782 44.8151 27.1621C44.7964 27.1567 44.7535 27.0937 44.6866 26.973L44.0673 27.2217C43.8796 27.31 43.7455 27.4237 43.6649 27.563C43.5524 27.5308 43.4719 27.599 43.4235 27.7678L43.403 28.1578C43.3815 28.2328 43.3252 28.2877 43.234 28.3225C43.151 28.2581 43.1122 28.1455 43.1178 27.9847L43.0414 27.9323L42.9529 28.0287C42.9367 28.085 42.9715 28.1761 43.0571 28.3022L43.1937 28.4631C43.1614 28.5757 43.1251 28.6668 43.0849 28.7364L43.0241 29.267L42.7704 29.6206L42.6736 29.9582L42.4403 30.1349L42.408 30.2474C42.3435 30.4725 42.2227 30.6104 42.0458 30.6612C42.1208 30.6827 42.2078 30.7685 42.3069 30.9187L41.6991 31.6579C41.7017 31.7195 41.6506 31.8977 41.5458 32.1924L40.925 33.9326L40.5655 35.7173C40.5494 35.7736 40.4635 35.8606 40.308 35.9784C40.3214 36.0025 40.332 36.036 40.34 36.0789C40.3668 36.1272 40.4029 36.1781 40.4484 36.2318L40.4242 36.3162L40.1468 36.328C40.1415 36.3467 40.1428 36.3776 40.1508 36.4205C40.1641 36.4446 40.1748 36.4781 40.1828 36.521L40.1907 36.7059C40.0566 36.7487 39.9091 36.9094 39.748 37.188C39.8176 37.2282 39.847 37.3381 39.8361 37.5177C39.8252 37.6973 39.7836 37.8071 39.7112 37.8473C39.7246 37.8714 39.825 37.9103 40.0126 37.9641L39.9723 38.1048L39.8556 38.1931C39.869 38.2173 39.8984 38.2562 39.9439 38.3098C39.9894 38.3635 40.0537 38.4225 40.1367 38.4869C40.1098 38.5807 40.1218 38.716 40.1725 38.893L40.2931 38.8971L40.3856 38.8932C40.3856 38.8932 40.4365 38.9281 40.5383 38.9978L40.6227 39.0221C40.7165 39.0489 40.7996 39.0423 40.872 39.0022C40.8773 38.9834 40.9109 38.9727 40.9725 38.9701C41.0208 38.9434 41.0449 38.93 41.0449 38.93L41.053 38.9019C41.0155 38.8911 40.9967 38.8857 40.9967 38.8857L40.9042 38.8896C40.9284 38.8763 40.9592 38.875 40.9967 38.8857L41.1535 38.8698L41.3666 38.87C41.3853 38.8754 41.4014 38.8901 41.4148 38.9143C41.4094 38.933 41.4161 38.9451 41.4349 38.9505C41.4911 38.9666 41.5515 38.9331 41.6159 38.8501C41.6641 38.8234 41.695 38.751 41.7085 38.6331C41.9284 38.5744 42.0089 38.4351 41.9502 38.2152C42.1031 38.0358 42.2132 37.7934 42.2805 37.4879L42.736 36.2179C42.8218 36.2019 42.913 36.1671 43.0095 36.1136C43.1355 36.028 43.2133 35.9691 43.2428 35.9369C43.2428 35.9369 43.2335 35.9343 43.2147 35.9289C43.196 35.9235 43.1464 35.8484 43.0662 35.7036C43.0636 35.642 43.0234 35.5696 42.9458 35.4864L42.363 35.2888C42.3147 35.3156 42.2719 35.3236 42.2343 35.3128L42.0897 35.18C42.071 35.1747 42.0495 35.1787 42.0254 35.192C42.0254 35.192 42.016 35.1893 41.9973 35.184L41.8485 35.1718C41.8298 35.1664 41.807 35.1396 41.7803 35.0913C41.7669 35.0672 41.7321 35.047 41.6758 35.0309C41.6517 35.0443 41.5833 35.0348 41.4708 35.0025L41.4468 34.8739L41.5475 34.6287L41.5678 34.4519L41.5839 34.3956C41.6054 34.3206 41.6698 34.2375 41.7771 34.1465C41.8791 34.0742 41.9354 34.0194 41.9461 33.9818L41.8981 33.7245L42.031 33.5799L42.0192 33.3025C42.0916 33.2623 42.2283 33.2102 42.4294 33.1461C42.4348 33.1273 42.4174 33.0817 42.3772 33.0093C42.3772 33.0093 42.3223 33.024 42.2124 33.0534L42.0717 33.0131L42.112 32.8724C42.1362 32.859 42.1603 32.8456 42.1844 32.8323C42.214 32.8001 42.2408 32.7774 42.2649 32.764C42.2649 32.764 42.3025 32.7037 42.3777 32.5832C42.5546 32.5324 42.6618 32.5124 42.6993 32.5232L42.8439 32.656C42.9216 32.7392 42.9698 32.7834 42.9885 32.7888L43.1091 32.7929C43.152 32.7849 43.2016 32.789 43.2579 32.8051L44.4275 33.0796C44.5347 33.1307 44.5815 33.2151 44.568 33.3331L44.5717 33.6386C44.6146 33.6306 44.7339 33.6039 44.9296 33.5585C45.0744 33.4783 45.179 33.4676 45.2432 33.5267L45.4722 33.6837C45.5151 33.6757 45.5553 33.6771 45.5928 33.6878C45.6304 33.6986 45.6799 33.7026 45.7416 33.7C45.83 33.7457 45.9063 33.798 45.9706 33.857C46.059 33.9027 46.1474 33.9483 46.2358 33.994L46.2921 34.0101C46.4421 34.0531 46.5922 34.0251 46.7424 33.9261C46.8255 33.9905 46.8307 34.1138 46.7582 34.296L46.3957 34.9228L46.4197 35.0515C46.4224 35.1131 46.4129 35.1815 46.3914 35.2565C46.335 35.3824 46.2693 35.4346 46.1943 35.4131L46.1179 35.3608C46.0938 35.3741 46.0763 35.3996 46.0656 35.4371C46.0656 35.4371 46.079 35.4612 46.1057 35.5095L46.2183 35.5418C46.1967 35.6168 46.1632 35.6985 46.1175 35.7869C46.0906 35.8807 46.049 35.9905 45.9926 36.1165C45.9202 36.1566 45.8665 36.2021 45.8316 36.253L45.8356 36.3455C45.8087 36.4393 45.771 36.5705 45.7226 36.7394C45.693 36.9135 45.6499 37.1346 45.5933 37.4026C45.5209 37.4427 45.4285 37.4466 45.3159 37.4144C45.2838 37.3849 45.2436 37.3835 45.1953 37.4102C45.147 37.437 45.1296 37.4624 45.143 37.4866C45.1697 37.5348 45.2233 37.5604 45.3037 37.5631C45.3278 37.5497 45.3533 37.5672 45.38 37.6155C45.3423 37.8888 45.2938 38.1286 45.2346 38.335C45.1942 38.5467 45.1431 38.7248 45.0814 38.8695L44.8598 39.3236C44.8088 39.4308 44.7604 39.5285 44.7148 39.6169C44.6745 39.6866 44.6463 39.7495 44.6302 39.8058L44.5294 40.051C44.4919 40.0402 44.4021 40.0348 44.2601 40.0346C44.1422 40.0211 44.0778 40.0331 44.0671 40.0706C44.051 40.1269 44.1902 40.2074 44.485 40.3122L44.4527 40.4248C44.4366 40.481 44.4177 40.5467 44.3962 40.6217C44.3801 40.678 44.3492 40.7503 44.3036 40.8387C44.1559 41.1414 44.0752 41.3518 44.0617 41.4697C44.051 41.5072 44.0215 41.5393 43.9732 41.5661C43.9812 41.609 43.9717 41.6773 43.9449 41.7711L43.9207 41.8555C43.8349 41.8715 43.7558 41.8996 43.6834 41.9397C43.67 41.9156 43.6566 41.8914 43.6432 41.8673C43.6299 41.8432 43.6165 41.819 43.6031 41.7949C43.5656 41.7841 43.5227 41.7921 43.4744 41.8189L43.3737 42.064L43.45 42.1164C43.5063 42.1325 43.6229 42.1152 43.7998 42.0644L43.7796 42.2413L43.5622 42.5748C43.4362 42.5184 43.3076 42.4714 43.1763 42.4337C43.0638 42.4014 42.9633 42.3625 42.8749 42.3168L42.6097 42.1799C42.6151 42.1611 42.6553 42.1625 42.7303 42.184C42.7437 42.2082 42.7866 42.2002 42.859 42.16L42.9113 42.0837C42.8578 41.9872 42.7869 41.9161 42.6985 41.8704C42.567 41.9748 42.4611 42.0256 42.3807 42.0229C42.3324 42.0496 42.3029 42.0818 42.2922 42.1193C42.2252 42.1407 42.122 42.1111 41.9827 42.0305C41.9344 42.0573 41.9439 41.9179 42.0112 41.6125L42.0638 41.323C42.037 41.2748 41.9861 41.2399 41.9111 41.2184C41.8173 41.1915 41.7584 41.1847 41.7342 41.1981L41.4003 41.4068C41.3762 41.4202 41.3333 41.4282 41.2717 41.4308C41.2288 41.4388 41.1765 41.4441 41.1149 41.4468C41.0612 41.4923 40.9647 41.5458 40.8253 41.6073L40.4835 41.6311C40.4085 41.6096 40.3241 41.5854 40.2303 41.5585C40.1365 41.5316 40.0213 41.5087 39.8846 41.4898C39.8605 41.5032 39.8055 41.5179 39.7197 41.5339C39.634 41.5499 39.5844 41.5458 39.571 41.5217ZM43.1914 26.6661C43.2235 26.6956 43.2637 26.697 43.312 26.6702C43.3602 26.6434 43.371 26.6059 43.3442 26.5577C43.3067 26.5469 43.2558 26.583 43.1914 26.6661ZM42.3906 27.4412C42.4469 27.4574 42.5876 27.4267 42.8128 27.3492C42.7057 27.2981 42.632 27.2364 42.5919 27.164L42.4634 26.9749C42.4391 27.1304 42.4162 27.2456 42.3947 27.3206C42.392 27.401 42.3906 27.4412 42.3906 27.4412ZM47.6155 28.9699C47.6477 28.9994 47.712 28.9874 47.8086 28.9339C47.7952 28.9098 47.7697 28.8923 47.7322 28.8816C47.6759 28.8654 47.6371 28.8949 47.6155 28.9699ZM46.8512 29.5119C46.8807 29.4798 46.8821 29.4396 46.8553 29.3913C46.8473 29.3484 46.8071 29.347 46.7347 29.3872C46.7186 29.4434 46.7574 29.485 46.8512 29.5119ZM46.2027 30.8179L46.2308 30.826C46.3433 30.8582 46.4532 30.8289 46.5605 30.7378C46.6731 30.7701 46.783 30.7407 46.8903 30.6497L46.6174 30.1147L46.364 30.2552C46.3692 30.3785 46.3155 30.5661 46.2027 30.8179ZM41.9583 29.6922L42.0267 29.5596L41.9705 29.5434L41.9301 29.6841L41.9583 29.6922ZM41.9461 29.8409L41.9903 29.7927L41.9703 29.7565L41.8898 29.8248L41.9461 29.8409ZM43.9002 33.7505C43.978 33.6916 44.0062 33.6287 43.9848 33.5617L43.796 33.477L43.7395 33.674L43.9002 33.7505ZM43.7914 34.0238C43.8156 34.0104 43.8651 34.0145 43.9402 34.036L43.9563 33.9797C43.9617 33.961 43.955 33.9489 43.9362 33.9435C43.9362 33.9435 43.9389 33.9342 43.9443 33.9154C43.8639 33.9126 43.8129 33.9488 43.7914 34.0238ZM39.9567 33.3809C39.9808 33.3675 40.0009 33.3327 40.0171 33.2764C40.0037 33.2523 39.9689 33.2322 39.9126 33.216C39.9286 33.3018 39.9433 33.3568 39.9567 33.3809ZM39.3125 34.3532L39.381 34.2206C39.3408 34.1482 39.3262 34.0222 39.3371 33.8427C39.3694 33.7301 39.3199 33.655 39.1886 33.6174L39.076 33.5851L39.0156 33.6896C39.0102 33.7083 39.0049 33.7271 38.9995 33.7459C39.0182 33.7512 39.0249 33.7633 39.0196 33.7821L39.0235 33.8745C39.0127 33.912 38.9993 33.9589 38.9831 34.0152C38.9724 34.0527 38.9656 34.1117 38.9629 34.1921C38.987 34.1787 39.046 34.1855 39.1397 34.2123L39.3125 34.3532ZM39.6658 34.8199C39.7141 34.7932 39.7409 34.7704 39.7463 34.7516C39.7624 34.6954 39.7236 34.6538 39.6298 34.6269C39.5949 34.6778 39.6069 34.7421 39.6658 34.8199ZM43.5716 36.9142L43.7003 36.8902L43.6682 36.7897C43.644 36.803 43.6293 36.8191 43.6239 36.8379C43.6185 36.8566 43.6011 36.8821 43.5716 36.9142ZM42.3718 38.7624C42.2994 38.8025 42.2457 38.848 42.2108 38.8989C42.2001 38.9364 42.2214 39.0035 42.275 39.1L42.3718 38.7624ZM37.0219 37.5633C37.0728 37.5982 37.1371 37.5862 37.2149 37.5273C37.1881 37.479 37.1654 37.4522 37.1466 37.4468C37.0903 37.4307 37.0488 37.4695 37.0219 37.5633ZM41.3984 39.1836L41.4307 39.0711C41.4173 39.0469 41.3825 39.0268 41.3262 39.0107L41.282 39.0589C41.2712 39.0964 41.2725 39.1272 41.2859 39.1513L41.3984 39.1836ZM42.8896 39.6112C42.9191 39.579 42.9205 39.5388 42.8937 39.4906C42.867 39.4423 42.8294 39.4315 42.7812 39.4583C42.7704 39.4958 42.8065 39.5468 42.8896 39.6112ZM37.1617 38.4559C37.2663 38.4453 37.3414 38.3958 37.387 38.3074C37.4165 38.2752 37.4179 38.235 37.3911 38.1868L37.3067 38.1626L37.1617 38.4559ZM41.4222 39.5254C41.4438 39.4503 41.4358 39.4074 41.3982 39.3967L41.2938 39.3363L41.2052 39.4327L41.4222 39.5254ZM40.6171 40.6342C40.6921 40.6557 40.7739 40.6183 40.8625 40.5219L40.8223 40.4495C40.6857 40.4306 40.5932 40.4345 40.5449 40.4612C40.5583 40.4854 40.5717 40.5095 40.5851 40.5337C40.5984 40.5578 40.6091 40.5913 40.6171 40.6342Z" fill="#052930"/>
<defs>
<linearGradient id="paint0_linear_11_878" x1="39.2794" y1="7.96491" x2="26.545" y2="52.3752" gradientUnits="userSpaceOnUse">
<stop stop-color="#F9DBAF"/>
<stop offset="0.495" stop-color="#938167"/>
<stop offset="1" stop-color="#F9DBAF"/>
</linearGradient>
</defs>
</svg>
